<svg id="bold" enable-background="new 0 0 24 24" height="512" viewBox="0 0 24 24" width="512" xmlns="http://www.w3.org/2000/svg"><path d="m23.101 3-.102-2.283c-.018-.401-.348-.717-.749-.717h-2.5c-.401 0-.731.316-.749.717l-.102 2.283z"/><path d="m18.833 4.5-.832 18.717c-.019.428.323.783.749.783h4.5c.426 0 .768-.355.749-.783l-.832-18.717z"/><path d="m17.667 8.211-5.996-2.181c-.153-.057-.324-.033-.458.06-.133.094-.213.247-.213.41v3.286l-10.329-3.756c-.153-.057-.324-.033-.458.06-.133.094-.213.247-.213.41v17c0 .276.224.5.5.5h16.679c-.122-.257-.19-.54-.177-.829zm-12.917 12.289h-2c-.414 0-.75-.336-.75-.75s.336-.75.75-.75h2c.414 0 .75.336.75.75s-.336.75-.75.75zm0-3h-2c-.414 0-.75-.336-.75-.75s.336-.75.75-.75h2c.414 0 .75.336.75.75s-.336.75-.75.75zm0-3h-2c-.414 0-.75-.336-.75-.75s.336-.75.75-.75h2c.414 0 .75.336.75.75s-.336.75-.75.75zm5 6h-2c-.414 0-.75-.336-.75-.75s.336-.75.75-.75h2c.414 0 .75.336.75.75s-.336.75-.75.75zm0-3h-2c-.414 0-.75-.336-.75-.75s.336-.75.75-.75h2c.414 0 .75.336.75.75s-.336.75-.75.75zm0-3h-2c-.414 0-.75-.336-.75-.75s.336-.75.75-.75h2c.414 0 .75.336.75.75s-.336.75-.75.75zm5 6h-2c-.414 0-.75-.336-.75-.75s.336-.75.75-.75h2c.414 0 .75.336.75.75s-.336.75-.75.75zm0-3h-2c-.414 0-.75-.336-.75-.75s.336-.75.75-.75h2c.414 0 .75.336.75.75s-.336.75-.75.75zm0-3h-2c-.414 0-.75-.336-.75-.75s.336-.75.75-.75h2c.414 0 .75.336.75.75s-.336.75-.75.75z"/></svg>